<?xml version="1.0" encoding="utf-8"?>
<!-- Generator: Adobe Illustrator 25.4.1, SVG Export Plug-In . SVG Version: 6.00 Build 0)  -->
<svg version="1.1" id="Camada_1" xmlns="http://www.w3.org/2000/svg" xmlns:xlink="http://www.w3.org/1999/xlink" x="0px" y="0px"
	 viewBox="0 0 150 56.2" style="enable-background:new 0 0 150 56.2;" xml:space="preserve">
<style type="text/css">
	.st0{fill:#CF1030;}
	.st1{fill:#FFFFFF;}
</style>
<g>
	<path class="st0" d="M54.7,7.7c1,0,2,0.2,2.7,0.7c1.2-0.6,2.6-0.7,4.2-0.7h3.8v1.7c1.7-1.4,4-2.1,6.4-2.1c3.2,0,5.8,1.2,7.6,3.5V9
		c-0.4-0.7-0.6-1.6-0.6-2.6c0-3,2.4-5.2,5.6-5.2S90,3.4,90,6.4c0,0.5-0.1,1-0.1,1.5h2.2c1,0,2,0.4,2.7,0.9C96,8.2,97.4,7.9,99,7.9
		h7.9c6.4,0,10,3.3,10,9.6v3h1.9v5.7h6.6v4.2h1.6h3.1h4.5c6.4,0,10,3.5,10,9.6v3h1.9v8.8h-6.6c-1,0-1.9-0.2-2.7-0.7
		c-1.1,0.6-2.4,0.7-4.1,0.7c-0.2,0-0.6,0-0.9,0h-8.3c-3.2,0-5.7-1.1-7.2-3c-0.9,1.2-2.2,2.2-4,2.7l0,0c-0.1,0-0.2,0-0.2,0.1
		c-0.1,0-0.4,0.1-0.5,0.1h0c-0.1,0-0.1,0-0.2,0c-1.9,0.4-4.1,0.4-6.4-0.2c-0.6-0.1-1.2-0.4-1.7-0.5c0,0-0.1,0-0.1-0.1
		c-0.1,0-0.1,0-0.2-0.1c0,0-0.1,0-0.1-0.1c-0.9-0.4-1.7-0.9-2.5-1.4c-2,1.6-4.5,2.6-7.2,2.6c-3.1,0-5.8-1.1-7.8-3v2.2l-1.1,0.7
		c-2.9,1.9-5.7,2.7-8.9,2.7c-8.3,0-14.1-5.7-14.1-13.9c0-5.2,2.2-9.3,6-11.8h-36l0,0c-5.7,0-10-3.6-10.9-8.8H16v8.8H5.7V11.2H3.4
		V1.8H25v7.3c1.6-1.1,3.6-1.7,5.8-1.7c3,0,5.5,1.1,7.2,3.1V7.7h4.5c1,0,2,0.2,2.7,0.7c1.2-0.6,2.6-0.7,4.2-0.7H54.7z"/>
	<path class="st1" d="M84.4,1C87.6,1,90,3.2,90,6.2c0,0.5-0.1,1-0.1,1.5h2.2c1,0,2,0.4,2.7,0.9C96,8,97.4,7.7,99,7.7h7.9
		c6.4,0,10,3.3,10,9.6v3h1.9v5.8h6.6v4.2h1.6h3.1h4.5c6.4,0,10,3.5,10,9.6V43h1.9v8.8h-6.4c-1,0-1.9-0.2-2.7-0.7
		c-1.1,0.6-2.4,0.7-4.1,0.7c-0.2,0-0.6,0-0.9,0h-8.3c-3.2,0-5.7-1.1-7.2-3c-0.9,1.2-2.2,2.2-4,2.7l0,0c-0.1,0-0.2,0-0.2,0.1
		c-0.1,0-0.4,0.1-0.5,0.1H112c-0.1,0-0.1,0-0.2,0c-0.7,0.1-1.6,0.2-2.6,0.2c-1.2,0-2.5-0.1-3.8-0.5c-0.6-0.1-1.2-0.4-1.7-0.5
		c0,0-0.1,0-0.1-0.1c-0.1,0-0.1,0-0.2-0.1c0,0-0.1,0-0.1-0.1c-0.9-0.4-1.7-0.9-2.5-1.4c-2,1.6-4.5,2.6-7.2,2.6c-3.1,0-5.8-1.1-7.8-3
		V51l-1.1,0.7c-2.9,1.9-5.7,2.7-8.9,2.7c-8.3,0-14.1-5.7-14.1-13.9c0-5.2,2.2-9.3,6-11.8h-36l0,0c-5.7,0-10-3.6-10.9-8.8H16v8.8H5.7
		V11.2H3.4V1.8H25v7.3c1.6-1.1,3.6-1.7,5.8-1.7c3,0,5.5,1.1,7.2,3.1V7.7h4.5c1,0,2,0.2,2.7,0.7c1.2-0.6,2.6-0.7,4.2-0.7h5.2
		c1,0,2,0.2,2.7,0.7c1.2-0.6,2.6-0.7,4.2-0.7h3.8v1.7c1.7-1.4,4-2.1,6.4-2.1c3.2,0,5.8,1.2,7.6,3.5V9c-0.4-0.7-0.6-1.6-0.6-2.6
		C78.8,3.3,81.1,1,84.4,1 M84.4,0.3c-1.7,0-3.3,0.6-4.6,1.7s-1.9,2.7-1.9,4.3c0,0.7,0.1,1.5,0.4,2.2c-1.7-1.2-4-2-6.4-2
		c-2,0-4,0.5-5.6,1.4V7.7V6.9h-0.9h-3.8c-1.6,0-3,0.2-4.1,0.7c-0.9-0.5-1.9-0.7-2.9-0.7h-5.2c-1.6,0-3,0.2-4.1,0.7
		c-0.9-0.5-1.9-0.7-2.9-0.7H38h-0.9v0.9v0.7c-1.7-1.2-4-2-6.3-2c-1.7,0-3.5,0.4-5,1.1V1.8V0.9H25H3.4H2.6v0.9v9.4v0.9h0.9h1.4v17.4
		v0.9h0.9H16h0.9v-0.9v-7.9h2.9c1.1,5.1,5.3,8.4,10.8,8.8l0,0h0.9H65c-2.7,2.7-4.3,6.4-4.3,10.9c0,4.2,1.5,7.9,4.2,10.5
		c2.7,2.6,6.6,4.1,10.8,4.1C79,55.9,82,55,85,53l1.1-0.7l0.4-0.2v-0.5V51c2,1.4,4.3,2,6.9,2s5.2-0.9,7.3-2.4
		c0.6,0.4,1.2,0.7,2.1,1.1l0,0h0.1c0.1,0,0.1,0.1,0.2,0.1l0,0h0.1c0.6,0.2,1.2,0.4,1.9,0.6c1.4,0.4,2.7,0.5,4.1,0.5
		c1,0,1.9-0.1,2.7-0.2l0,0c0.1,0,0.1,0,0.2,0h0.1l0,0c0.1,0,0.4-0.1,0.5-0.1s0.2,0,0.4-0.1l0,0l0,0l0,0l0,0c1.6-0.5,2.9-1.2,3.7-2.2
		c1.7,1.6,4.2,2.5,7.2,2.5h8.2c0.2,0,0.6,0,0.9,0c1.4,0,2.9-0.1,4.1-0.6c0.9,0.4,1.7,0.6,2.7,0.6h6.4h0.9v-0.9V43v-0.9h-0.9h-1v-2.2
		c0-3.3-1-6-2.9-7.7c-1.9-1.9-4.6-2.7-8.1-2.7h-4.5H127h-0.7v-3.3v-0.9h-0.9h-5.7v-5v-0.9h-0.9h-1.1v-2.1c0-3.3-1-6-2.9-7.7
		s-4.6-2.7-8.1-2.7h-7.9c-1.5,0-2.9,0.2-4.1,0.9c-1-0.5-1.9-0.9-2.9-0.9h-1.2c0-0.2,0-0.4,0-0.6c0-1.7-0.6-3.2-1.9-4.3
		C87.7,0.8,86.1,0.3,84.4,0.3L84.4,0.3z"/>
	<path class="st1" d="M84.4,9.1c1.7,0,3-1.1,3-2.7s-1.2-2.6-3-2.6c-1.7,0-3,1.1-3,2.6C81.4,8,82.5,9.1,84.4,9.1z"/>
	<path class="st1" d="M44.8,12.1c-0.2-1.1-1.2-1.7-2.4-1.7h-1.9v16.1h5v-8.8c0-2.5,1.7-3.6,3.8-3.6h1.1v-3.7h-1.2
		C47.4,10.3,45.8,11,44.8,12.1z"/>
	<path class="st1" d="M95,17.7c0-2.5,1.7-3.6,3.8-3.6h1.1v-3.7h-1.2c-2.1,0-3.7,0.6-4.6,1.7c-0.2-1.1-1.2-1.7-2.4-1.7h-1.9v16.1h5
		L95,17.7L95,17.7z"/>
	<path class="st1" d="M30.9,10c-4.8,0-8.1,3.5-8.1,8.6c0,4.7,3.3,8.3,8.6,8.3c2.5,0,4.5-0.5,5.8-1.5v-3.7c-1.7,0.9-3.3,1.2-5.5,1.2
		s-3.8-1.2-4.3-3.2h10.3c0.1-0.5,0.1-1.4,0.1-2C37.9,13.1,35.2,10,30.9,10z M27.7,16.2c0.5-1.6,1.5-2.5,3.2-2.5
		c1.5,0,2.5,0.9,2.6,2.5H27.7z"/>
	<path class="st1" d="M57.1,12.1c-0.2-1.1-1.2-1.7-2.4-1.7h-1.9v16.1h5v-8.8c0-2.5,1.7-3.6,3.8-3.6h1.1v-3.7h-1.2
		C59.6,10.3,57.9,11,57.1,12.1z"/>
	<path class="st1" d="M84.9,10.3H82v16.1h5V12.6C87,11.2,86.2,10.3,84.9,10.3z"/>
	<path class="st1" d="M6,8.6h1.4c0.6,0,0.9,0.2,0.9,0.9v17.4h5.2V18h7.4v-4.3h-7.4V8.6h9.1V4.4H6V8.6z"/>
	<path class="st1" d="M114.4,22v-4.7c0-4.6-2.4-6.9-7.4-6.9h-4.8v3.8h4.2c2.2,0,3.2,0.6,3.3,2.6h-1.5c-4.8,0-7.7,1.4-7.7,5.2
		c0,3.1,2,5,5.2,5c2.1,0,3.2-0.9,4.3-2.1c0.5,1.1,1.2,1.7,2.4,1.7h3.8V23h-1C114.6,22.9,114.4,22.5,114.4,22z M106.6,23.2
		c-1,0-1.7-0.6-1.7-1.5c0-1.4,0.9-1.9,3.2-1.9h1.5C109.5,21.7,108.3,23.2,106.6,23.2z"/>
	<path class="st1" d="M72.3,26.8c2.5,0,4.5-0.5,6-1.5v-3.7c-1.7,0.9-3.5,1.2-5.5,1.2c-2.2,0-3.8-1.2-4.2-3.2h10.2
		c0.1-0.5,0.2-1.4,0.2-2c0-4.6-2.6-7.7-7.1-7.7c-4.8,0-8.1,3.5-8.1,8.6C63.9,23.2,67.2,26.8,72.3,26.8z M71.8,13.7
		c1.5,0,2.5,0.9,2.6,2.5h-5.7C69.2,14.6,70.2,13.7,71.8,13.7z"/>
	<path class="st1" d="M69.2,41.2c0-4.3,2.9-6.7,6.6-6.7c2.5,0,4.5,0.7,6.7,2.2v-4.6c-2.1-1.4-4.6-2.2-7.4-2.2
		c-6.7,0-11.2,4.7-11.2,11.3c0,6.7,4.6,11.3,11.5,11.3c3,0,5.3-0.9,7.4-2.4v-4.6c-2.4,1.6-4.6,2.4-7.1,2.4
		C72.1,47.8,69.2,45.4,69.2,41.2z"/>
	<path class="st1" d="M122.7,28.7h-5v14.5c0,4.3,2.7,6.1,6.4,6.1h2.5v-4h-1.7c-1.2,0-2.1-0.6-2.1-2.5v-6.1h4.7v-3.8h-4.8V28.7z"/>
	<path class="st1" d="M143,45.6c-0.6,0-1-0.4-1-1v-4.7c0-4.6-2.4-7.1-7.4-7.1h-5.1v3.8h4.5c2.1,0,3.2,0.7,3.3,2.6h-1.5
		c-4.8,0-7.7,1.5-7.7,5.3c0,3.1,1.9,5,5.2,5c2.1,0,3.3-0.9,4.5-2.1c0.4,1.1,1.2,1.7,2.4,1.7h3.8v-3.6L143,45.6L143,45.6z
		 M134.3,45.8c-1.1,0-1.7-0.6-1.7-1.5c0-1.5,1-2,3.3-2h1.5C137.3,44.4,136.1,45.8,134.3,45.8z"/>
	<path class="st1" d="M93.3,32.8c-4.8,0-8.6,3.6-8.6,8.4c0,4.7,3.7,8.3,8.6,8.3c4.8,0,8.6-3.7,8.6-8.4
		C101.9,36.3,98.1,32.8,93.3,32.8z M93.3,45.4c-2.2,0-3.6-1.6-3.6-4.3s1.4-4.3,3.6-4.3c2.1,0,3.5,1.6,3.5,4.3
		C96.8,43.8,95.4,45.4,93.3,45.4z"/>
	<path class="st1" d="M103.5,37.7c0,2.2,1.2,3.5,4.1,4.7c2.2,0.9,3.1,1.5,3.1,2.2s-0.5,1-1.6,1c-2,0-3.8-0.4-5.7-1.4V48
		c1.4,0.7,3.7,1.4,6.2,1.4c3.6,0,6.2-2,6.2-5.1s-2.4-4.1-4.5-5.1c-2-0.9-2.9-1.1-2.9-1.9c0-0.7,0.5-0.9,1.7-0.9h5.6v-3.8h-6
		C105.9,32.9,103.5,34.5,103.5,37.7z"/>
</g>
</svg>
